<svg xmlns="http://www.w3.org/2000/svg" width="110.99" height="110.99" viewBox="0 0 110.99 110.99">
  <g id="Group_20" data-name="Group 20" transform="translate(-537.26 -448.26)">
    <circle id="Ellipse_3" data-name="Ellipse 3" cx="39.241" cy="39.241" r="39.241" transform="translate(592.755 448.26) rotate(45)"/>
    <path id="Path_7" data-name="Path 7" d="M37.166,17.074H23.111V3.019a3.019,3.019,0,1,0-6.037,0V17.074H3.019A2.891,2.891,0,0,0,0,20.092a2.922,2.922,0,0,0,3.019,3.019H17.074V37.166a2.924,2.924,0,0,0,3.019,3.019,3,3,0,0,0,3.019-3.019V23.111H37.166a3.019,3.019,0,1,0,0-6.037Z" transform="translate(592.755 475.34) rotate(45)" fill="#fff"/>
    <path id="Path_6" data-name="Path 6" d="M39.241,5.282A33.964,33.964,0,0,1,63.257,63.257,33.964,33.964,0,0,1,15.225,15.225,33.734,33.734,0,0,1,39.241,5.282m0-5.282A39.241,39.241,0,1,0,78.482,39.241,39.235,39.235,0,0,0,39.241,0Z" transform="translate(592.755 448.26) rotate(45)" fill="#fff"/>
  </g>
</svg>
