<svg xmlns="http://www.w3.org/2000/svg" width="78" height="78" viewBox="0 0 78 78">
  <g id="Group_6" data-name="Group 6" transform="translate(-20 -45)">
    <g id="Group_5" data-name="Group 5">
      <rect id="Rectangle_2" data-name="Rectangle 2" width="78" height="78" transform="translate(20 45)" fill="#7afff6"/>
      <rect id="Rectangle_3" data-name="Rectangle 3" width="66" height="66" transform="translate(26 51)"/>
    </g>
    <path id="Path_5" data-name="Path 5" d="M46.5,27.045H32.892V13.435a2.923,2.923,0,1,0-5.846,0V27.045H13.435a2.8,2.8,0,0,0-2.923,2.923,2.83,2.83,0,0,0,2.923,2.923H27.045V46.5a2.831,2.831,0,0,0,2.923,2.923A2.908,2.908,0,0,0,32.892,46.5V32.892H46.5a2.923,2.923,0,1,0,0-5.846Z" transform="translate(29.032 53.575)" fill="#7afff6"/>
  </g>
</svg>
